<svg xmlns="http://www.w3.org/2000/svg" xmlns:xlink="http://www.w3.org/1999/xlink" width="1080" zoomAndPan="magnify" viewBox="0 0 810 809.999993" height="1080" preserveAspectRatio="xMidYMid meet" version="1.0"><defs><clipPath id="bdbfe794bb"><path d="M 72 170 L 740.347656 170 L 740.347656 810 L 72 810 Z M 72 170 " clip-rule="nonzero"/></clipPath><clipPath id="3734e63d7d"><path d="M 238 6.039062 L 576 6.039062 L 576 307 L 238 307 Z M 238 6.039062 " clip-rule="nonzero"/></clipPath><clipPath id="0f8776ba03"><path d="M 72 170 L 740.347656 170 L 740.347656 810 L 72 810 Z M 72 170 " clip-rule="nonzero"/></clipPath><clipPath id="e389689e1b"><path d="M 238 6.039062 L 575 6.039062 L 575 307 L 238 307 Z M 238 6.039062 " clip-rule="nonzero"/></clipPath></defs><g clip-path="url(#bdbfe794bb)"><path fill="#000000" d="M 690.875 810.039062 L 122.691406 810.039062 C 108.894531 810.039062 95.503906 804.289062 86.046875 794.261719 C 76.558594 784.238281 71.542969 770.582031 72.320312 756.789062 L 102.230469 218.546875 C 103.710938 191.800781 125.820312 170.878906 152.601562 170.878906 L 660.960938 170.878906 C 687.746094 170.878906 709.851562 191.800781 711.332031 218.546875 L 741.246094 756.789062 C 742.019531 770.582031 737.003906 784.238281 727.515625 794.261719 C 718.027344 804.289062 704.667969 810.039062 690.875 810.039062 Z M 152.601562 204.515625 C 143.6875 204.515625 136.285156 211.515625 135.8125 220.394531 L 105.898438 758.636719 C 105.664062 763.3125 107.277344 767.753906 110.476562 771.152344 C 113.707031 774.515625 118.011719 776.398438 122.691406 776.398438 L 690.875 776.398438 C 695.550781 776.398438 699.890625 774.515625 703.089844 771.152344 C 706.285156 767.753906 707.933594 763.3125 707.664062 758.636719 L 677.75 220.394531 C 677.28125 211.515625 669.878906 204.515625 660.960938 204.515625 Z M 152.601562 204.515625 " fill-opacity="1" fill-rule="nonzero"/></g><g clip-path="url(#3734e63d7d)"><path fill="#000000" d="M 558.199219 306.246094 C 548.910156 306.246094 541.375 298.710938 541.375 289.425781 L 541.375 173.972656 C 541.375 99.761719 481.007812 39.410156 406.78125 39.410156 C 332.554688 39.410156 272.1875 99.761719 272.1875 173.972656 L 272.1875 289.425781 C 272.1875 298.710938 264.652344 306.246094 255.363281 306.246094 C 246.078125 306.246094 238.539062 298.710938 238.539062 289.425781 L 238.539062 173.972656 C 238.539062 81.226562 314.011719 5.769531 406.78125 5.769531 C 499.550781 5.769531 575.023438 81.226562 575.023438 173.972656 L 575.023438 289.425781 C 575.023438 298.710938 567.484375 306.246094 558.199219 306.246094 Z M 558.199219 306.246094 " fill-opacity="1" fill-rule="nonzero"/></g><g clip-path="url(#0f8776ba03)"><path fill="#f0c92f" d="M 690.6875 809.992188 L 122.675781 809.992188 C 108.882812 809.992188 95.496094 804.242188 86.042969 794.21875 C 76.554688 784.191406 71.542969 770.535156 72.316406 756.746094 L 102.222656 218.53125 C 103.703125 191.789062 125.800781 170.867188 152.578125 170.867188 L 660.785156 170.867188 C 687.5625 170.867188 709.660156 191.789062 711.140625 218.53125 L 741.046875 756.746094 C 741.820312 770.535156 736.808594 784.191406 727.320312 794.21875 C 717.835938 804.242188 704.480469 809.992188 690.6875 809.992188 Z M 152.578125 204.507812 C 143.664062 204.507812 136.265625 211.503906 135.792969 220.382812 L 105.890625 758.59375 C 105.652344 763.269531 107.269531 767.710938 110.464844 771.109375 C 113.691406 774.472656 118 776.355469 122.675781 776.355469 L 690.6875 776.355469 C 695.363281 776.355469 699.703125 774.472656 702.898438 771.109375 C 706.09375 767.710938 707.742188 763.269531 707.472656 758.59375 L 677.570312 220.382812 C 677.097656 211.503906 669.699219 204.507812 660.785156 204.507812 Z M 152.578125 204.507812 " fill-opacity="1" fill-rule="nonzero"/></g><g clip-path="url(#e389689e1b)"><path fill="#f0c92f" d="M 558.054688 306.226562 C 548.769531 306.226562 541.234375 298.691406 541.234375 289.410156 L 541.234375 173.960938 C 541.234375 99.757812 480.886719 39.410156 406.683594 39.410156 C 332.476562 39.410156 272.128906 99.757812 272.128906 173.960938 L 272.128906 289.410156 C 272.128906 298.691406 264.59375 306.226562 255.308594 306.226562 C 246.027344 306.226562 238.492188 298.691406 238.492188 289.410156 L 238.492188 173.960938 C 238.492188 81.222656 313.941406 5.769531 406.683594 5.769531 C 499.421875 5.769531 574.871094 81.222656 574.871094 173.960938 L 574.871094 289.410156 C 574.871094 298.691406 567.335938 306.226562 558.054688 306.226562 Z M 558.054688 306.226562 " fill-opacity="1" fill-rule="nonzero"/></g></svg>