<svg xmlns="http://www.w3.org/2000/svg" xmlns:xlink="http://www.w3.org/1999/xlink" width="1080" zoomAndPan="magnify" viewBox="0 0 810 809.999993" height="1080" preserveAspectRatio="xMidYMid meet" version="1.0"><defs><clipPath id="1d502eb508"><path d="M 72.386719 99 L 723 99 L 723 807 L 72.386719 807 Z M 72.386719 99 " clip-rule="nonzero"/></clipPath></defs><g clip-path="url(#1d502eb508)"><path fill="#fbcc0c" d="M 701.71875 99.101562 L 539.335938 99.101562 C 546.554688 116.546875 551.480469 135.421875 553.324219 155.355469 C 560.867188 159.910156 565.933594 168.164062 565.933594 177.625 C 565.933594 188.515625 559.21875 197.820312 549.742188 201.703125 C 546.699219 202.945312 543.378906 203.644531 539.886719 203.644531 C 535.621094 203.644531 531.613281 202.59375 528.050781 200.773438 C 519.644531 196.464844 513.890625 187.722656 513.890625 177.632812 C 513.890625 169.613281 517.554688 162.503906 523.253906 157.734375 C 521.226562 136.492188 515.25 116.664062 506.304688 99.101562 L 288.425781 99.101562 C 279.46875 116.671875 273.492188 136.507812 271.484375 157.761719 C 277.164062 162.53125 280.816406 169.621094 280.816406 177.632812 C 280.816406 187.722656 275.046875 196.472656 266.640625 200.773438 C 263.078125 202.59375 259.0625 203.644531 254.804688 203.644531 C 251.324219 203.644531 248.011719 202.945312 244.96875 201.703125 C 235.472656 197.820312 228.777344 188.515625 228.777344 177.625 C 228.777344 168.148438 233.851562 159.875 241.429688 155.320312 C 243.277344 135.394531 248.199219 116.519531 255.410156 99.09375 L 92.902344 99.09375 L 72.074219 764.816406 C 72.074219 787.828125 90.730469 806.496094 113.753906 806.496094 L 680.882812 806.496094 C 703.925781 806.496094 722.574219 787.828125 722.574219 764.816406 Z M 701.71875 99.101562 " fill-opacity="1" fill-rule="nonzero"/></g><path fill="#fbcc0c" d="M 255.605469 184.484375 C 261.492188 184.484375 266.355469 179.855469 266.679688 173.941406 L 266.722656 172.890625 C 267.21875 90.039062 325.820312 22.632812 397.378906 22.632812 C 468.988281 22.632812 527.601562 90.109375 528.023438 173.042969 L 528.078125 173.953125 C 528.394531 179.855469 533.246094 184.484375 539.140625 184.484375 C 545 184.484375 549.851562 179.867188 550.203125 173.933594 L 550.246094 172.980469 C 549.425781 77.824219 480.859375 0.398438 397.378906 0.398438 C 313.429688 0.398438 244.859375 77.914062 244.554688 173.941406 C 244.871094 179.847656 249.71875 184.484375 255.605469 184.484375 Z M 255.605469 184.484375 " fill-opacity="1" fill-rule="nonzero"/></svg>