<svg xmlns="http://www.w3.org/2000/svg" xmlns:xlink="http://www.w3.org/1999/xlink" width="1080" zoomAndPan="magnify" viewBox="0 0 810 809.999993" height="1080" preserveAspectRatio="xMidYMid meet" version="1.0"><path fill="#000000" d="M 29.671875 26.636719 L 787.570312 26.636719 L 787.570312 134.933594 L 29.671875 134.933594 Z M 29.671875 26.636719 " fill-opacity="1" fill-rule="nonzero"/><path fill="#000000" d="M 29.671875 243.214844 L 625.167969 243.214844 L 625.167969 351.511719 L 29.671875 351.511719 Z M 29.671875 243.214844 " fill-opacity="1" fill-rule="nonzero"/><path fill="#000000" d="M 29.671875 459.792969 L 462.761719 459.792969 L 462.761719 568.089844 L 29.671875 568.089844 Z M 29.671875 459.792969 " fill-opacity="1" fill-rule="nonzero"/><path fill="#000000" d="M 29.671875 676.386719 L 300.355469 676.386719 L 300.355469 784.667969 L 29.671875 784.667969 Z M 29.671875 676.386719 " fill-opacity="1" fill-rule="nonzero"/><path fill="#000000" d="M 29.671875 33.394531 L 787.570312 33.394531 L 787.570312 141.691406 L 29.671875 141.691406 Z M 29.671875 33.394531 " fill-opacity="1" fill-rule="nonzero"/><path fill="#000000" d="M 29.671875 249.972656 L 625.167969 249.972656 L 625.167969 358.269531 L 29.671875 358.269531 Z M 29.671875 249.972656 " fill-opacity="1" fill-rule="nonzero"/><path fill="#000000" d="M 29.671875 466.550781 L 462.761719 466.550781 L 462.761719 574.847656 L 29.671875 574.847656 Z M 29.671875 466.550781 " fill-opacity="1" fill-rule="nonzero"/><path fill="#000000" d="M 29.671875 683.144531 L 300.355469 683.144531 L 300.355469 791.425781 L 29.671875 791.425781 Z M 29.671875 683.144531 " fill-opacity="1" fill-rule="nonzero"/></svg>