<svg xmlns="http://www.w3.org/2000/svg" xmlns:xlink="http://www.w3.org/1999/xlink" width="1080" zoomAndPan="magnify" viewBox="0 0 810 809.999993" height="1080" preserveAspectRatio="xMidYMid meet" version="1.0"><defs><clipPath id="b5bdf1231d"><path d="M 13.035156 0 L 787.785156 0 L 787.785156 810 L 13.035156 810 Z M 13.035156 0 " clip-rule="nonzero"/></clipPath></defs><g clip-path="url(#b5bdf1231d)"><path fill="#000000" d="M 787.503906 99.808594 L 787.503906 517.410156 C 708.734375 575.101562 596.386719 591.929688 498.621094 560.160156 C 472.425781 551.699219 446.320312 539.550781 421.113281 527.761719 C 387.445312 512.101562 352.699219 495.988281 315.429688 486.988281 C 292.652344 481.5 270.238281 479.070312 248.363281 479.070312 C 174.003906 479.070312 106.039062 507.058594 49.324219 537.660156 L 49.324219 792 C 49.324219 801.898438 41.222656 810 31.320312 810 C 21.417969 810 13.316406 801.898438 13.316406 792 L 13.316406 18 C 13.316406 8.101562 21.417969 0 31.320312 0 C 41.222656 0 49.324219 8.101562 49.324219 18 L 49.324219 117.898438 C 123.140625 75.691406 210.824219 37.890625 307.054688 61.019531 C 340.722656 69.121094 372.414062 83.878906 405.898438 99.449219 C 432.1875 111.691406 459.28125 124.289062 487.460938 133.46875 C 587.472656 165.960938 701.441406 152.460938 787.503906 99.808594 Z M 787.503906 99.808594 " fill-opacity="1" fill-rule="nonzero"/><path fill="#e3dac5" d="M 787.316406 99.808594 L 787.316406 517.410156 C 708.566406 575.101562 596.246094 591.929688 498.503906 560.160156 C 472.316406 551.699219 446.214844 539.550781 421.015625 527.761719 C 387.355469 512.101562 352.613281 495.988281 315.355469 486.988281 C 292.585938 481.5 270.175781 479.070312 248.304688 479.070312 C 173.964844 479.070312 106.015625 507.058594 49.316406 537.660156 L 49.316406 792 C 49.316406 801.898438 41.214844 810 31.316406 810 C 21.414062 810 13.316406 801.898438 13.316406 792 L 13.316406 18 C 13.316406 8.101562 21.414062 0 31.316406 0 C 41.214844 0 49.316406 8.101562 49.316406 18 L 49.316406 117.898438 C 123.113281 75.691406 210.773438 37.890625 306.984375 61.019531 C 340.644531 69.121094 372.324219 83.878906 405.804688 99.449219 C 432.085938 111.691406 459.175781 124.289062 487.34375 133.46875 C 587.335938 165.960938 701.273438 152.460938 787.316406 99.808594 Z M 787.316406 99.808594 " fill-opacity="1" fill-rule="nonzero"/></g></svg>