<svg xmlns="http://www.w3.org/2000/svg" xmlns:xlink="http://www.w3.org/1999/xlink" width="1080" zoomAndPan="magnify" viewBox="0 0 810 809.999993" height="1080" preserveAspectRatio="xMidYMid meet" version="1.0"><defs><clipPath id="0bdfab94d8"><path d="M 0 0 L 774.75 0 L 774.75 810 L 0 810 Z M 0 0 " clip-rule="nonzero"/></clipPath><clipPath id="179a7c3a79"><path d="M 0 5.570312 L 774.75 5.570312 L 774.75 810 L 0 810 Z M 0 5.570312 " clip-rule="nonzero"/></clipPath></defs><g clip-path="url(#0bdfab94d8)"><path fill="#000000" d="M 774.46875 99.808594 L 774.46875 517.410156 C 695.699219 575.101562 583.351562 591.929688 485.589844 560.160156 C 459.390625 551.699219 433.285156 539.550781 408.078125 527.761719 C 374.410156 512.101562 339.664062 495.988281 302.394531 486.988281 C 279.617188 481.5 257.203125 479.070312 235.328125 479.070312 C 160.96875 479.070312 93.003906 507.058594 36.289062 537.660156 L 36.289062 792 C 36.289062 801.898438 28.1875 810 18.285156 810 C 8.382812 810 0.28125 801.898438 0.28125 792 L 0.28125 18 C 0.28125 8.101562 8.382812 0 18.285156 0 C 28.1875 0 36.289062 8.101562 36.289062 18 L 36.289062 117.898438 C 110.109375 75.691406 197.789062 37.890625 294.023438 61.019531 C 327.691406 69.121094 359.378906 83.878906 392.867188 99.449219 C 419.152344 111.691406 446.25 124.289062 474.425781 133.46875 C 574.441406 165.960938 688.40625 152.460938 774.46875 99.808594 Z M 774.46875 99.808594 " fill-opacity="1" fill-rule="nonzero"/></g><g clip-path="url(#179a7c3a79)"><path fill="#000000" d="M 774.46875 105.382812 L 774.46875 522.980469 C 695.699219 580.671875 583.351562 597.5 485.589844 565.730469 C 459.390625 557.269531 433.285156 545.121094 408.078125 533.332031 C 374.410156 517.671875 339.664062 501.5625 302.394531 492.5625 C 279.617188 487.070312 257.203125 484.640625 235.328125 484.640625 C 160.96875 484.640625 93.003906 512.632812 36.289062 543.230469 L 36.289062 797.570312 C 36.289062 807.472656 28.1875 815.570312 18.285156 815.570312 C 8.382812 815.570312 0.28125 807.472656 0.28125 797.570312 L 0.28125 23.570312 C 0.28125 13.671875 8.382812 5.570312 18.285156 5.570312 C 28.1875 5.570312 36.289062 13.671875 36.289062 23.570312 L 36.289062 123.472656 C 110.109375 81.261719 197.789062 43.460938 294.023438 66.589844 C 327.691406 74.691406 359.378906 89.453125 392.867188 105.019531 C 419.152344 117.261719 446.25 129.863281 474.425781 139.042969 C 574.441406 171.53125 688.40625 158.03125 774.46875 105.382812 Z M 774.46875 105.382812 " fill-opacity="1" fill-rule="nonzero"/></g></svg>