<svg xmlns="http://www.w3.org/2000/svg" xmlns:xlink="http://www.w3.org/1999/xlink" width="1080" zoomAndPan="magnify" viewBox="0 0 810 809.999993" height="1080" preserveAspectRatio="xMidYMid meet" version="1.0"><path fill="#000000" d="M 415.59375 275.988281 C 463.1875 287.074219 510.78125 257.476562 521.867188 209.882812 C 532.957031 162.289062 503.359375 114.695312 455.683594 103.605469 C 408.089844 92.605469 360.496094 122.199219 349.410156 169.796875 C 338.40625 217.304688 368.003906 264.898438 415.59375 275.988281 Z M 415.59375 275.988281 " fill-opacity="1" fill-rule="nonzero"/><path fill="#000000" d="M 482.292969 705.273438 C 492.613281 704.761719 506.941406 702.121094 516.496094 692.480469 C 528.519531 680.453125 529.542969 660.835938 529.375 652.988281 C 529.375 651.882812 528.519531 651.027344 527.414062 651.027344 C 519.566406 650.855469 499.949219 651.882812 487.921875 663.90625 C 486.300781 665.527344 484.851562 667.40625 483.316406 669.792969 L 481.097656 673.203125 L 481.097656 645.058594 L 481.441406 644.714844 C 488.09375 637.378906 496.023438 625.867188 496.023438 612.902344 C 496.023438 596.097656 482.632812 581.769531 476.835938 576.394531 C 476.066406 575.628906 474.789062 575.628906 473.933594 576.394531 C 468.136719 581.769531 454.746094 596.097656 454.746094 612.902344 C 454.746094 625.867188 462.675781 637.378906 469.328125 644.714844 L 469.671875 645.058594 L 469.671875 673.203125 L 467.453125 669.878906 C 465.917969 667.40625 464.46875 665.527344 462.847656 663.992188 C 451.417969 652.5625 433.164062 651.113281 424.636719 651.113281 C 424.210938 651.113281 423.785156 651.113281 423.441406 651.113281 C 422.332031 651.113281 421.480469 651.964844 421.480469 653.074219 C 421.308594 660.921875 422.332031 680.539062 434.359375 692.566406 C 443.996094 702.121094 458.242188 704.761719 468.5625 705.359375 L 469.671875 705.445312 L 469.671875 738.710938 L 467.453125 735.382812 C 465.917969 732.910156 464.46875 731.121094 462.847656 729.5 C 450.820312 717.472656 431.289062 716.363281 423.355469 716.621094 C 422.25 716.621094 421.394531 717.472656 421.394531 718.582031 C 421.226562 726.429688 422.25 745.960938 434.273438 758.074219 C 443.914062 767.710938 458.15625 770.355469 468.476562 770.867188 L 469.585938 770.953125 L 469.585938 803.875 L 481.015625 803.875 L 481.015625 770.953125 L 482.121094 770.867188 C 492.441406 770.355469 506.773438 767.710938 516.324219 758.074219 C 528.351562 746.046875 529.375 726.511719 529.203125 718.582031 C 529.203125 717.472656 528.351562 716.621094 527.242188 716.621094 C 519.394531 716.363281 499.777344 717.472656 487.75 729.5 C 486.132812 731.121094 484.679688 732.910156 483.144531 735.382812 L 480.929688 738.796875 L 480.929688 705.53125 Z M 482.292969 705.273438 " fill-opacity="1" fill-rule="nonzero"/><path fill="#000000" d="M 510.867188 405.890625 C 518.542969 412.800781 530.484375 421.074219 544.042969 421.074219 C 561.101562 421.074219 575.601562 407.9375 581.0625 402.308594 C 581.828125 401.539062 581.828125 400.347656 581.0625 399.492188 C 575.6875 393.777344 561.015625 380.644531 544.042969 380.644531 C 541.742188 380.644531 539.4375 380.898438 536.625 381.496094 L 532.699219 382.351562 L 552.660156 362.390625 L 553.085938 362.390625 C 562.980469 361.878906 576.710938 359.320312 585.921875 350.195312 C 597.863281 338.253906 598.460938 318.71875 598.203125 310.871094 C 598.203125 309.765625 597.265625 308.824219 596.15625 308.824219 C 588.308594 308.484375 568.695312 309.167969 556.753906 321.109375 C 547.625 330.320312 545.066406 343.96875 544.554688 353.945312 L 544.554688 354.371094 L 524.597656 374.332031 L 525.449219 370.410156 C 526.046875 367.59375 526.304688 365.207031 526.304688 362.988281 C 526.304688 346.78125 514.449219 332.878906 508.390625 326.824219 C 508.050781 326.480469 507.796875 326.226562 507.539062 325.96875 C 506.773438 325.203125 505.492188 325.203125 504.726562 325.96875 C 499.097656 331.429688 485.875 345.929688 485.875 362.988281 C 485.875 376.550781 494.148438 388.492188 501.058594 396.167969 L 501.824219 397.019531 L 478.457031 420.5625 L 479.308594 416.636719 C 479.90625 413.824219 480.160156 411.433594 480.160156 409.21875 C 480.160156 392.160156 467.113281 377.660156 461.398438 372.199219 C 460.628906 371.433594 459.351562 371.433594 458.582031 372.199219 C 452.953125 377.660156 439.816406 392.160156 439.816406 409.21875 C 439.816406 422.78125 448.089844 434.804688 455 442.480469 L 455.769531 443.335938 L 439.222656 459.882812 L 381.734375 418.429688 C 383.527344 343.882812 379.601562 330.492188 378.324219 325.800781 C 375.851562 317.441406 366.636719 288.527344 348.726562 264.046875 L 329.023438 237.09375 C 318.535156 222.679688 302.328125 213.382812 284.589844 211.589844 C 266.847656 209.714844 249.019531 215.511719 235.800781 227.371094 L 86.542969 354.542969 C 75.539062 363.753906 69.140625 377.316406 69.058594 391.648438 L 66.925781 580.402344 L 3.808594 735.8125 C -6.425781 761.058594 5.683594 789.800781 30.929688 800.039062 C 56.175781 810.273438 84.835938 798.160156 95.15625 772.914062 L 161.769531 608.890625 C 164.070312 603.175781 165.265625 597.035156 165.351562 590.894531 L 165.691406 563.175781 L 197.078125 605.394531 L 240.152344 764.640625 C 246.546875 788.351562 268.722656 805.921875 293.117188 803.363281 C 324.164062 800.125 343.78125 770.269531 335.933594 741.355469 L 289.535156 570.507812 C 287.914062 564.625 285.183594 558.996094 281.515625 554.132812 L 206.289062 452.886719 L 300.027344 381.496094 C 300.027344 398.726562 299.683594 419.28125 299.085938 437.621094 C 298.660156 451.269531 304.972656 464.316406 316.144531 472.335938 L 395.464844 529.484375 C 398.195312 531.445312 401.097656 533.066406 404.082031 534.257812 C 421.226562 541.253906 441.523438 535.878906 452.78125 520.1875 C 464.808594 503.554688 462.421875 481.121094 448.261719 467.132812 L 463.957031 451.4375 L 464.808594 452.207031 C 472.484375 459.113281 484.511719 467.386719 498.074219 467.386719 C 515.128906 467.386719 529.628906 454.253906 535.089844 448.625 C 535.855469 447.855469 535.855469 446.660156 535.089844 445.808594 C 529.714844 440.09375 515.046875 427.042969 498.074219 426.957031 C 495.769531 426.957031 493.464844 427.300781 490.652344 427.8125 L 486.730469 428.664062 L 510.269531 405.125 Z M 510.867188 405.890625 " fill-opacity="1" fill-rule="nonzero"/><path fill="#000000" d="M 622.683594 705.273438 C 633.003906 704.761719 647.332031 702.121094 656.882812 692.480469 C 668.910156 680.453125 669.933594 660.835938 669.765625 652.988281 C 669.765625 651.882812 668.910156 651.027344 667.800781 651.027344 C 659.957031 650.855469 640.339844 651.882812 628.3125 663.90625 C 626.691406 665.527344 625.242188 667.40625 623.707031 669.792969 L 621.488281 673.203125 L 621.488281 645.058594 L 621.828125 644.714844 C 628.484375 637.378906 636.414062 625.867188 636.414062 612.902344 C 636.414062 596.097656 623.023438 581.769531 617.222656 576.394531 C 616.457031 575.628906 615.175781 575.628906 614.324219 576.394531 C 608.523438 581.769531 595.132812 596.097656 595.132812 612.902344 C 595.132812 625.867188 603.066406 637.378906 609.71875 644.714844 L 610.058594 645.058594 L 610.058594 673.203125 L 607.84375 669.878906 C 606.308594 667.40625 604.855469 665.527344 603.238281 663.992188 C 591.808594 652.5625 573.554688 651.113281 565.027344 651.113281 C 564.597656 651.113281 564.171875 651.113281 563.832031 651.113281 C 562.722656 651.113281 561.871094 651.964844 561.871094 653.074219 C 561.699219 660.921875 562.722656 680.539062 574.75 692.566406 C 584.386719 702.121094 598.628906 704.761719 608.949219 705.359375 L 610.058594 705.445312 L 610.058594 738.710938 L 607.84375 735.382812 C 606.308594 732.910156 604.855469 731.121094 603.238281 729.5 C 591.210938 717.472656 571.679688 716.363281 563.746094 716.621094 C 562.636719 716.621094 561.785156 717.472656 561.785156 718.582031 C 561.613281 726.429688 562.636719 745.960938 574.664062 758.074219 C 584.300781 767.710938 598.546875 770.355469 608.867188 770.867188 L 609.972656 770.953125 L 609.972656 803.875 L 621.402344 803.875 L 621.402344 770.953125 L 622.511719 770.867188 C 632.832031 770.355469 647.160156 767.710938 656.714844 758.074219 C 668.738281 746.046875 669.761719 726.511719 669.59375 718.582031 C 669.59375 717.472656 668.738281 716.621094 667.632812 716.621094 C 659.785156 716.363281 640.167969 717.472656 628.140625 729.5 C 626.519531 731.121094 625.070312 732.910156 623.535156 735.382812 L 621.316406 738.796875 L 621.316406 705.53125 Z M 622.683594 705.273438 " fill-opacity="1" fill-rule="nonzero"/><path fill="#000000" d="M 768.785156 729.328125 C 767.167969 730.949219 765.714844 732.738281 764.179688 735.214844 L 761.964844 738.625 L 761.964844 705.359375 L 763.074219 705.273438 C 773.394531 704.761719 787.722656 702.121094 797.273438 692.480469 C 809.300781 680.453125 810.324219 660.835938 810.152344 652.988281 C 810.152344 651.882812 809.300781 651.027344 808.191406 651.027344 C 800.34375 650.855469 780.726562 651.882812 768.703125 663.90625 C 767.082031 665.527344 765.632812 667.40625 764.097656 669.792969 L 761.878906 673.203125 L 761.878906 645.058594 L 762.21875 644.714844 C 768.871094 637.378906 776.804688 625.867188 776.804688 612.902344 C 776.804688 596.097656 763.414062 581.769531 757.613281 576.394531 C 756.847656 575.628906 755.566406 575.628906 754.714844 576.394531 C 748.914062 581.769531 735.523438 596.097656 735.523438 612.902344 C 735.523438 625.867188 743.457031 637.378906 750.109375 644.714844 L 750.449219 645.058594 L 750.449219 673.203125 L 748.230469 669.878906 C 746.695312 667.40625 745.246094 665.527344 743.625 663.992188 C 732.195312 652.5625 713.945312 651.113281 705.414062 651.113281 C 704.988281 651.113281 704.5625 651.113281 704.222656 651.113281 C 703.113281 651.113281 702.257812 651.964844 702.257812 653.074219 C 702.089844 660.921875 703.113281 680.539062 715.140625 692.566406 C 724.777344 702.121094 739.019531 704.761719 749.339844 705.359375 L 750.449219 705.445312 L 750.449219 738.710938 L 748.230469 735.382812 C 746.695312 732.910156 745.246094 731.121094 743.625 729.5 C 731.601562 717.472656 712.066406 716.363281 704.136719 716.621094 C 703.027344 716.621094 702.175781 717.472656 702.175781 718.582031 C 702.003906 726.429688 703.027344 745.960938 715.054688 758.074219 C 724.691406 767.710938 738.933594 770.355469 749.253906 770.867188 L 750.363281 770.953125 L 750.363281 803.875 L 761.792969 803.875 L 761.792969 770.953125 L 762.902344 770.867188 C 773.222656 770.355469 787.550781 767.710938 797.105469 758.074219 C 809.128906 746.046875 810.152344 726.511719 809.984375 718.582031 C 809.984375 717.472656 809.128906 716.621094 808.019531 716.621094 C 800.34375 716.191406 780.8125 717.300781 768.785156 729.328125 Z M 768.785156 729.328125 " fill-opacity="1" fill-rule="nonzero"/><path fill="#000000" d="M 415.59375 275.988281 C 463.1875 287.074219 510.78125 257.476562 521.867188 209.882812 C 532.957031 162.289062 503.359375 114.695312 455.683594 103.605469 C 408.089844 92.605469 360.496094 122.199219 349.410156 169.796875 C 338.40625 217.304688 368.003906 264.898438 415.59375 275.988281 Z M 415.59375 275.988281 " fill-opacity="1" fill-rule="nonzero"/><path fill="#000000" d="M 482.292969 705.273438 C 492.613281 704.761719 506.941406 702.121094 516.496094 692.480469 C 528.519531 680.453125 529.542969 660.835938 529.375 652.988281 C 529.375 651.882812 528.519531 651.027344 527.414062 651.027344 C 519.566406 650.855469 499.949219 651.882812 487.921875 663.90625 C 486.300781 665.527344 484.851562 667.40625 483.316406 669.792969 L 481.097656 673.203125 L 481.097656 645.058594 L 481.441406 644.714844 C 488.09375 637.378906 496.023438 625.867188 496.023438 612.902344 C 496.023438 596.097656 482.632812 581.769531 476.835938 576.394531 C 476.066406 575.628906 474.789062 575.628906 473.933594 576.394531 C 468.136719 581.769531 454.746094 596.097656 454.746094 612.902344 C 454.746094 625.867188 462.675781 637.378906 469.328125 644.714844 L 469.671875 645.058594 L 469.671875 673.203125 L 467.453125 669.878906 C 465.917969 667.40625 464.46875 665.527344 462.847656 663.992188 C 451.417969 652.5625 433.164062 651.113281 424.636719 651.113281 C 424.210938 651.113281 423.785156 651.113281 423.441406 651.113281 C 422.332031 651.113281 421.480469 651.964844 421.480469 653.074219 C 421.308594 660.921875 422.332031 680.539062 434.359375 692.566406 C 443.996094 702.121094 458.242188 704.761719 468.5625 705.359375 L 469.671875 705.445312 L 469.671875 738.710938 L 467.453125 735.382812 C 465.917969 732.910156 464.46875 731.121094 462.847656 729.5 C 450.820312 717.472656 431.289062 716.363281 423.355469 716.621094 C 422.25 716.621094 421.394531 717.472656 421.394531 718.582031 C 421.226562 726.429688 422.25 745.960938 434.273438 758.074219 C 443.914062 767.710938 458.15625 770.355469 468.476562 770.867188 L 469.585938 770.953125 L 469.585938 803.875 L 481.015625 803.875 L 481.015625 770.953125 L 482.121094 770.867188 C 492.441406 770.355469 506.773438 767.710938 516.324219 758.074219 C 528.351562 746.046875 529.375 726.511719 529.203125 718.582031 C 529.203125 717.472656 528.351562 716.621094 527.242188 716.621094 C 519.394531 716.363281 499.777344 717.472656 487.75 729.5 C 486.132812 731.121094 484.679688 732.910156 483.144531 735.382812 L 480.929688 738.796875 L 480.929688 705.53125 Z M 482.292969 705.273438 " fill-opacity="1" fill-rule="nonzero"/><path fill="#000000" d="M 510.867188 405.890625 C 518.542969 412.800781 530.484375 421.074219 544.042969 421.074219 C 561.101562 421.074219 575.601562 407.9375 581.0625 402.308594 C 581.828125 401.539062 581.828125 400.347656 581.0625 399.492188 C 575.6875 393.777344 561.015625 380.644531 544.042969 380.644531 C 541.742188 380.644531 539.4375 380.898438 536.625 381.496094 L 532.699219 382.351562 L 552.660156 362.390625 L 553.085938 362.390625 C 562.980469 361.878906 576.710938 359.320312 585.921875 350.195312 C 597.863281 338.253906 598.460938 318.71875 598.203125 310.871094 C 598.203125 309.765625 597.265625 308.824219 596.15625 308.824219 C 588.308594 308.484375 568.695312 309.167969 556.753906 321.109375 C 547.625 330.320312 545.066406 343.96875 544.554688 353.945312 L 544.554688 354.371094 L 524.597656 374.332031 L 525.449219 370.410156 C 526.046875 367.59375 526.304688 365.207031 526.304688 362.988281 C 526.304688 346.78125 514.449219 332.878906 508.390625 326.824219 C 508.050781 326.480469 507.796875 326.226562 507.539062 325.96875 C 506.773438 325.203125 505.492188 325.203125 504.726562 325.96875 C 499.097656 331.429688 485.875 345.929688 485.875 362.988281 C 485.875 376.550781 494.148438 388.492188 501.058594 396.167969 L 501.824219 397.019531 L 478.457031 420.5625 L 479.308594 416.636719 C 479.90625 413.824219 480.160156 411.433594 480.160156 409.21875 C 480.160156 392.160156 467.113281 377.660156 461.398438 372.199219 C 460.628906 371.433594 459.351562 371.433594 458.582031 372.199219 C 452.953125 377.660156 439.816406 392.160156 439.816406 409.21875 C 439.816406 422.78125 448.089844 434.804688 455 442.480469 L 455.769531 443.335938 L 439.222656 459.882812 L 381.734375 418.429688 C 383.527344 343.882812 379.601562 330.492188 378.324219 325.800781 C 375.851562 317.441406 366.636719 288.527344 348.726562 264.046875 L 329.023438 237.09375 C 318.535156 222.679688 302.328125 213.382812 284.589844 211.589844 C 266.847656 209.714844 249.019531 215.511719 235.800781 227.371094 L 86.542969 354.542969 C 75.539062 363.753906 69.140625 377.316406 69.058594 391.648438 L 66.925781 580.402344 L 3.808594 735.8125 C -6.425781 761.058594 5.683594 789.800781 30.929688 800.039062 C 56.175781 810.273438 84.835938 798.160156 95.15625 772.914062 L 161.769531 608.890625 C 164.070312 603.175781 165.265625 597.035156 165.351562 590.894531 L 165.691406 563.175781 L 197.078125 605.394531 L 240.152344 764.640625 C 246.546875 788.351562 268.722656 805.921875 293.117188 803.363281 C 324.164062 800.125 343.78125 770.269531 335.933594 741.355469 L 289.535156 570.507812 C 287.914062 564.625 285.183594 558.996094 281.515625 554.132812 L 206.289062 452.886719 L 300.027344 381.496094 C 300.027344 398.726562 299.683594 419.28125 299.085938 437.621094 C 298.660156 451.269531 304.972656 464.316406 316.144531 472.335938 L 395.464844 529.484375 C 398.195312 531.445312 401.097656 533.066406 404.082031 534.257812 C 421.226562 541.253906 441.523438 535.878906 452.78125 520.1875 C 464.808594 503.554688 462.421875 481.121094 448.261719 467.132812 L 463.957031 451.4375 L 464.808594 452.207031 C 472.484375 459.113281 484.511719 467.386719 498.074219 467.386719 C 515.128906 467.386719 529.628906 454.253906 535.089844 448.625 C 535.855469 447.855469 535.855469 446.660156 535.089844 445.808594 C 529.714844 440.09375 515.046875 427.042969 498.074219 426.957031 C 495.769531 426.957031 493.464844 427.300781 490.652344 427.8125 L 486.730469 428.664062 L 510.269531 405.125 Z M 510.867188 405.890625 " fill-opacity="1" fill-rule="nonzero"/><path fill="#000000" d="M 622.683594 705.273438 C 633.003906 704.761719 647.332031 702.121094 656.882812 692.480469 C 668.910156 680.453125 669.933594 660.835938 669.765625 652.988281 C 669.765625 651.882812 668.910156 651.027344 667.800781 651.027344 C 659.957031 650.855469 640.339844 651.882812 628.3125 663.90625 C 626.691406 665.527344 625.242188 667.40625 623.707031 669.792969 L 621.488281 673.203125 L 621.488281 645.058594 L 621.828125 644.714844 C 628.484375 637.378906 636.414062 625.867188 636.414062 612.902344 C 636.414062 596.097656 623.023438 581.769531 617.222656 576.394531 C 616.457031 575.628906 615.175781 575.628906 614.324219 576.394531 C 608.523438 581.769531 595.132812 596.097656 595.132812 612.902344 C 595.132812 625.867188 603.066406 637.378906 609.71875 644.714844 L 610.058594 645.058594 L 610.058594 673.203125 L 607.84375 669.878906 C 606.308594 667.40625 604.855469 665.527344 603.238281 663.992188 C 591.808594 652.5625 573.554688 651.113281 565.027344 651.113281 C 564.597656 651.113281 564.171875 651.113281 563.832031 651.113281 C 562.722656 651.113281 561.871094 651.964844 561.871094 653.074219 C 561.699219 660.921875 562.722656 680.539062 574.75 692.566406 C 584.386719 702.121094 598.628906 704.761719 608.949219 705.359375 L 610.058594 705.445312 L 610.058594 738.710938 L 607.84375 735.382812 C 606.308594 732.910156 604.855469 731.121094 603.238281 729.5 C 591.210938 717.472656 571.679688 716.363281 563.746094 716.621094 C 562.636719 716.621094 561.785156 717.472656 561.785156 718.582031 C 561.613281 726.429688 562.636719 745.960938 574.664062 758.074219 C 584.300781 767.710938 598.546875 770.355469 608.867188 770.867188 L 609.972656 770.953125 L 609.972656 803.875 L 621.402344 803.875 L 621.402344 770.953125 L 622.511719 770.867188 C 632.832031 770.355469 647.160156 767.710938 656.714844 758.074219 C 668.738281 746.046875 669.761719 726.511719 669.59375 718.582031 C 669.59375 717.472656 668.738281 716.621094 667.632812 716.621094 C 659.785156 716.363281 640.167969 717.472656 628.140625 729.5 C 626.519531 731.121094 625.070312 732.910156 623.535156 735.382812 L 621.316406 738.796875 L 621.316406 705.53125 Z M 622.683594 705.273438 " fill-opacity="1" fill-rule="nonzero"/><path fill="#000000" d="M 768.785156 729.328125 C 767.167969 730.949219 765.714844 732.738281 764.179688 735.214844 L 761.964844 738.625 L 761.964844 705.359375 L 763.074219 705.273438 C 773.394531 704.761719 787.722656 702.121094 797.273438 692.480469 C 809.300781 680.453125 810.324219 660.835938 810.152344 652.988281 C 810.152344 651.882812 809.300781 651.027344 808.191406 651.027344 C 800.34375 650.855469 780.726562 651.882812 768.703125 663.90625 C 767.082031 665.527344 765.632812 667.40625 764.097656 669.792969 L 761.878906 673.203125 L 761.878906 645.058594 L 762.21875 644.714844 C 768.871094 637.378906 776.804688 625.867188 776.804688 612.902344 C 776.804688 596.097656 763.414062 581.769531 757.613281 576.394531 C 756.847656 575.628906 755.566406 575.628906 754.714844 576.394531 C 748.914062 581.769531 735.523438 596.097656 735.523438 612.902344 C 735.523438 625.867188 743.457031 637.378906 750.109375 644.714844 L 750.449219 645.058594 L 750.449219 673.203125 L 748.230469 669.878906 C 746.695312 667.40625 745.246094 665.527344 743.625 663.992188 C 732.195312 652.5625 713.945312 651.113281 705.414062 651.113281 C 704.988281 651.113281 704.5625 651.113281 704.222656 651.113281 C 703.113281 651.113281 702.257812 651.964844 702.257812 653.074219 C 702.089844 660.921875 703.113281 680.539062 715.140625 692.566406 C 724.777344 702.121094 739.019531 704.761719 749.339844 705.359375 L 750.449219 705.445312 L 750.449219 738.710938 L 748.230469 735.382812 C 746.695312 732.910156 745.246094 731.121094 743.625 729.5 C 731.601562 717.472656 712.066406 716.363281 704.136719 716.621094 C 703.027344 716.621094 702.175781 717.472656 702.175781 718.582031 C 702.003906 726.429688 703.027344 745.960938 715.054688 758.074219 C 724.691406 767.710938 738.933594 770.355469 749.253906 770.867188 L 750.363281 770.953125 L 750.363281 803.875 L 761.792969 803.875 L 761.792969 770.953125 L 762.902344 770.867188 C 773.222656 770.355469 787.550781 767.710938 797.105469 758.074219 C 809.128906 746.046875 810.152344 726.511719 809.984375 718.582031 C 809.984375 717.472656 809.128906 716.621094 808.019531 716.621094 C 800.34375 716.191406 780.8125 717.300781 768.785156 729.328125 Z M 768.785156 729.328125 " fill-opacity="1" fill-rule="nonzero"/></svg>