<svg xmlns="http://www.w3.org/2000/svg" xmlns:xlink="http://www.w3.org/1999/xlink" width="1080" zoomAndPan="magnify" viewBox="0 0 810 809.999993" height="1080" preserveAspectRatio="xMidYMid meet" version="1.0"><defs><clipPath id="f0a4139fa0"><path d="M 1 259.199219 L 809 259.199219 L 809 809.699219 L 1 809.699219 Z M 1 259.199219 " clip-rule="nonzero"/></clipPath><clipPath id="4e5a0d2226"><path d="M 1 259.199219 L 809 259.199219 L 809 809.699219 L 1 809.699219 Z M 1 259.199219 " clip-rule="nonzero"/></clipPath></defs><g clip-path="url(#f0a4139fa0)"><path fill="#000000" d="M 804.898438 771.808594 L 711.769531 625.195312 L 711.769531 637.808594 C 711.769531 656.398438 703.949219 673.101562 691.511719 685.03125 L 739.386719 760.398438 L 69.140625 760.398438 L 193.960938 551.765625 L 227.488281 573.148438 C 237.347656 579.546875 248.601562 582.765625 259.890625 582.765625 C 270.125 582.765625 280.382812 580.125 289.660156 574.824219 L 324.765625 554.925781 C 328.699219 552.757812 333.34375 552.9375 336.84375 555.476562 L 353.054688 567.261719 C 372.164062 580.898438 397.699219 582.214844 418.210938 570.574219 L 455.175781 549.386719 C 458.484375 547.5 462.402344 547.398438 465.675781 549.039062 L 517.222656 574.695312 C 535.011719 583.574219 556.09375 583.054688 573.605469 573.226562 L 580.609375 569.292969 L 580.609375 512.886719 L 549.53125 530.363281 C 546.242188 532.214844 542.449219 532.34375 539.195312 530.703125 L 487.648438 505.046875 C 469.746094 496.101562 448.632812 496.660156 430.890625 506.625 L 393.832031 527.867188 C 389.9375 530.074219 385.269531 529.835938 381.800781 527.363281 L 365.753906 515.699219 C 346.949219 502.046875 321.5 500.550781 300.726562 512.019531 L 265.320312 532.089844 C 261.886719 534.078125 257.542969 534.023438 254.109375 531.789062 L 219.214844 509.539062 L 293.230469 385.832031 L 342.265625 447.273438 C 347.105469 453.339844 354.421875 456.558594 362.226562 456.519531 C 369.960938 456.289062 377.136719 452.429688 381.597656 446.117188 L 464.835938 328.171875 L 514.398438 406.214844 C 515.417969 405.042969 516.21875 403.742188 517.332031 402.628906 L 549.785156 370.199219 L 486.664062 270.832031 C 482.269531 263.910156 474.703125 259.625 466.5 259.429688 C 466.289062 259.421875 466.09375 259.421875 465.898438 259.421875 C 457.90625 259.421875 450.417969 263.296875 445.792969 269.828125 L 360.289062 391.015625 L 309.566406 327.457031 C 304.515625 321.160156 296.773438 317.753906 288.679688 318.257812 C 280.640625 318.800781 273.363281 323.25 269.230469 330.167969 L 4.683594 772.367188 C 0.128906 779.964844 0.0273438 789.410156 4.394531 797.117188 C 8.753906 804.8125 16.925781 809.570312 25.78125 809.570312 L 784.132812 809.570312 C 793.101562 809.570312 801.371094 804.6875 805.683594 796.828125 C 810.007812 788.96875 809.703125 779.386719 804.898438 771.808594 Z M 804.898438 771.808594 " fill-opacity="1" fill-rule="nonzero"/></g><path fill="#000000" d="M 546.320312 466.363281 C 555.925781 475.964844 571.53125 475.964844 581.101562 466.363281 L 621.597656 425.898438 L 621.597656 637.800781 C 621.597656 651.378906 632.613281 662.390625 646.1875 662.390625 C 659.765625 662.390625 670.78125 651.378906 670.78125 637.800781 L 670.78125 425.90625 L 711.242188 466.355469 C 716.046875 471.15625 722.34375 473.558594 728.644531 473.558594 C 734.941406 473.558594 741.242188 471.15625 746.027344 466.355469 C 755.632812 456.753906 755.632812 441.191406 746.042969 431.589844 L 663.597656 349.179688 C 658.972656 344.578125 652.726562 341.976562 646.199219 341.976562 C 639.667969 341.976562 633.421875 344.566406 628.816406 349.179688 L 546.351562 431.589844 C 536.746094 441.191406 536.746094 456.753906 546.335938 466.355469 Z M 546.320312 466.363281 " fill-opacity="1" fill-rule="nonzero"/><g clip-path="url(#4e5a0d2226)"><path fill="#e3dac5" d="M 804.898438 772.078125 L 711.769531 625.390625 L 711.769531 638.011719 C 711.769531 656.609375 703.949219 673.324219 691.511719 685.257812 L 739.386719 760.664062 L 69.140625 760.664062 L 193.960938 551.921875 L 227.488281 573.316406 C 237.347656 579.714844 248.601562 582.9375 259.890625 582.9375 C 270.125 582.9375 280.382812 580.292969 289.660156 574.992188 L 324.765625 555.082031 C 328.699219 552.914062 333.34375 553.09375 336.84375 555.636719 L 353.054688 567.425781 C 372.164062 581.066406 397.699219 582.386719 418.210938 570.738281 L 455.175781 549.539062 C 458.484375 547.652344 462.402344 547.550781 465.675781 549.191406 L 517.222656 574.863281 C 535.011719 583.746094 556.09375 583.226562 573.605469 573.390625 L 580.609375 569.457031 L 580.609375 513.023438 L 549.53125 530.507812 C 546.242188 532.359375 542.449219 532.488281 539.195312 530.847656 L 487.648438 505.175781 C 469.746094 496.226562 448.632812 496.785156 430.890625 506.757812 L 393.832031 528.007812 C 389.9375 530.21875 385.269531 529.980469 381.800781 527.507812 L 365.753906 515.835938 C 346.949219 502.175781 321.5 500.679688 300.726562 512.15625 L 265.320312 532.234375 C 261.886719 534.222656 257.542969 534.171875 254.109375 531.9375 L 219.214844 509.671875 L 293.230469 385.898438 L 342.265625 447.375 C 347.105469 453.445312 354.421875 456.664062 362.226562 456.621094 C 369.960938 456.394531 377.136719 452.535156 381.597656 446.21875 L 464.835938 328.207031 L 514.398438 406.292969 C 515.417969 405.117188 516.21875 403.820312 517.332031 402.703125 L 549.785156 370.257812 L 486.664062 270.839844 C 482.269531 263.910156 474.703125 259.625 466.5 259.429688 C 466.289062 259.421875 466.09375 259.421875 465.898438 259.421875 C 457.90625 259.421875 450.417969 263.300781 445.792969 269.835938 L 360.289062 391.085938 L 309.566406 327.492188 C 304.515625 321.195312 296.773438 317.785156 288.679688 318.289062 C 280.640625 318.832031 273.363281 323.285156 269.230469 330.207031 L 4.683594 772.640625 C 0.128906 780.238281 0.0273438 789.691406 4.394531 797.402344 C 8.753906 805.105469 16.925781 809.863281 25.78125 809.863281 L 784.132812 809.863281 C 793.101562 809.863281 801.371094 804.976562 805.683594 797.113281 C 810.007812 789.25 809.703125 779.660156 804.898438 772.078125 Z M 804.898438 772.078125 " fill-opacity="1" fill-rule="nonzero"/></g><path fill="#e3dac5" d="M 546.320312 466.472656 C 555.925781 476.078125 571.53125 476.078125 581.101562 466.472656 L 621.597656 425.988281 L 621.597656 638.003906 C 621.597656 651.585938 632.613281 662.605469 646.1875 662.605469 C 659.765625 662.605469 670.78125 651.585938 670.78125 638.003906 L 670.78125 425.996094 L 711.242188 466.464844 C 716.046875 471.269531 722.34375 473.675781 728.644531 473.675781 C 734.941406 473.675781 741.242188 471.269531 746.027344 466.464844 C 755.632812 456.859375 755.632812 441.289062 746.042969 431.683594 L 663.597656 349.230469 C 658.972656 344.621094 652.726562 342.019531 646.199219 342.019531 C 639.667969 342.019531 633.421875 344.613281 628.816406 349.230469 L 546.351562 431.683594 C 536.746094 441.289062 536.746094 456.859375 546.335938 466.464844 Z M 546.320312 466.472656 " fill-opacity="1" fill-rule="nonzero"/></svg>