<svg xmlns="http://www.w3.org/2000/svg" xmlns:xlink="http://www.w3.org/1999/xlink" width="1080" zoomAndPan="magnify" viewBox="0 0 810 809.999993" height="1080" preserveAspectRatio="xMidYMid meet" version="1.0"><path fill="#000000" d="M 280.289062 528.085938 C 417.144531 528.085938 528.085938 417.144531 528.085938 280.289062 C 528.085938 143.4375 417.144531 32.496094 280.289062 32.496094 C 143.4375 32.496094 32.496094 143.4375 32.496094 280.289062 C 32.496094 417.144531 143.4375 528.085938 280.289062 528.085938 Z M 489.644531 466.664062 L 803.617188 780.636719 C 809.960938 786.980469 809.960938 797.269531 803.617188 803.617188 C 797.269531 809.960938 786.980469 809.960938 780.636719 803.617188 L 466.664062 489.644531 C 417.136719 533.769531 351.84375 560.582031 280.289062 560.582031 C 125.492188 560.582031 0 435.089844 0 280.289062 C 0 125.492188 125.492188 0 280.289062 0 C 435.089844 0 560.582031 125.492188 560.582031 280.289062 C 560.582031 351.84375 533.769531 417.136719 489.644531 466.664062 Z M 489.644531 466.664062 " fill-opacity="1" fill-rule="nonzero"/><path fill="#f0c92f" d="M 280.289062 528.085938 C 417.144531 528.085938 528.085938 417.144531 528.085938 280.289062 C 528.085938 143.4375 417.144531 32.496094 280.289062 32.496094 C 143.4375 32.496094 32.496094 143.4375 32.496094 280.289062 C 32.496094 417.144531 143.4375 528.085938 280.289062 528.085938 Z M 489.644531 466.664062 L 803.617188 780.636719 C 809.960938 786.980469 809.960938 797.269531 803.617188 803.617188 C 797.269531 809.960938 786.980469 809.960938 780.636719 803.617188 L 466.664062 489.644531 C 417.136719 533.769531 351.84375 560.582031 280.289062 560.582031 C 125.492188 560.582031 0 435.089844 0 280.289062 C 0 125.492188 125.492188 0 280.289062 0 C 435.089844 0 560.582031 125.492188 560.582031 280.289062 C 560.582031 351.84375 533.769531 417.136719 489.644531 466.664062 Z M 489.644531 466.664062 " fill-opacity="1" fill-rule="nonzero"/></svg>